<mxfile host="app.diagrams.net" modified="2024-06-11T11:24:46.426Z" agent="Mozilla/5.0 (Macintosh; Intel Mac OS X 10_15_7) AppleWebKit/537.36 (KHTML, like Gecko) Chrome/125.0.0.0 Safari/537.36" etag="1tEZS3xU89SmwUX2VtXY" version="24.5.2" type="device">
  <diagram name="Page-1" id="UwKIY2LNwVwTFuO1w9Y4">
    <mxGraphModel dx="1886" dy="1161" grid="1" gridSize="10" guides="1" tooltips="1" connect="1" arrows="1" fold="1" page="1" pageScale="1" pageWidth="827" pageHeight="1169" math="0" shadow="0">
      <root>
        <mxCell id="0" />
        <mxCell id="1" parent="0" />
        <mxCell id="sH3FiKFbEd8MB_PRnb2a-5" value="" style="group" vertex="1" connectable="0" parent="1">
          <mxGeometry x="40" y="400" width="680" height="270" as="geometry" />
        </mxCell>
        <mxCell id="sH3FiKFbEd8MB_PRnb2a-4" value="" style="rounded=1;arcSize=10;dashed=1;fillColor=none;gradientColor=none;dashPattern=8 3 1 3;strokeWidth=2;" vertex="1" parent="sH3FiKFbEd8MB_PRnb2a-5">
          <mxGeometry width="680" height="270" as="geometry" />
        </mxCell>
        <mxCell id="sH3FiKFbEd8MB_PRnb2a-1" value="" style="shape=image;html=1;verticalAlign=top;verticalLabelPosition=bottom;labelBackgroundColor=#ffffff;imageAspect=0;aspect=fixed;image=https://cdn4.iconfinder.com/data/icons/ionicons/512/icon-social-github-128.png" vertex="1" parent="sH3FiKFbEd8MB_PRnb2a-5">
          <mxGeometry x="10" y="10" width="50" height="50" as="geometry" />
        </mxCell>
        <mxCell id="sH3FiKFbEd8MB_PRnb2a-6" value="&lt;font style=&quot;font-size: 10px;&quot;&gt;repository: joselikitfg/wazuh-exercise-6&lt;/font&gt;" style="text;html=1;align=center;verticalAlign=middle;whiteSpace=wrap;rounded=0;" vertex="1" parent="sH3FiKFbEd8MB_PRnb2a-5">
          <mxGeometry x="190" y="10" width="320" height="30" as="geometry" />
        </mxCell>
        <mxCell id="sH3FiKFbEd8MB_PRnb2a-7" value=".github" style="sketch=0;outlineConnect=0;fontColor=#232F3E;gradientColor=none;fillColor=#232F3D;strokeColor=none;dashed=0;verticalLabelPosition=bottom;verticalAlign=top;align=center;html=1;fontSize=12;fontStyle=0;aspect=fixed;pointerEvents=1;shape=mxgraph.aws4.folder;" vertex="1" parent="sH3FiKFbEd8MB_PRnb2a-5">
          <mxGeometry x="60" y="90" width="78" height="71" as="geometry" />
        </mxCell>
        <mxCell id="sH3FiKFbEd8MB_PRnb2a-8" value="iac" style="sketch=0;outlineConnect=0;fontColor=#232F3E;gradientColor=none;fillColor=#232F3D;strokeColor=none;dashed=0;verticalLabelPosition=bottom;verticalAlign=top;align=center;html=1;fontSize=12;fontStyle=0;aspect=fixed;pointerEvents=1;shape=mxgraph.aws4.folder;" vertex="1" parent="sH3FiKFbEd8MB_PRnb2a-5">
          <mxGeometry x="290" y="90" width="78" height="71" as="geometry" />
        </mxCell>
        <mxCell id="sH3FiKFbEd8MB_PRnb2a-11" value="src" style="sketch=0;outlineConnect=0;fontColor=#232F3E;gradientColor=none;fillColor=#232F3D;strokeColor=none;dashed=0;verticalLabelPosition=bottom;verticalAlign=top;align=center;html=1;fontSize=12;fontStyle=0;aspect=fixed;pointerEvents=1;shape=mxgraph.aws4.folder;" vertex="1" parent="sH3FiKFbEd8MB_PRnb2a-5">
          <mxGeometry x="510" y="90" width="78" height="71" as="geometry" />
        </mxCell>
      </root>
    </mxGraphModel>
  </diagram>
</mxfile>
